<svg width="43" height="35" viewBox="0 0 43 35" fill="none" xmlns="http://www.w3.org/2000/svg">
<path d="M43 34.8841H26.4834C24.8698 29.6634 24.0629 24.2528 24.0629 18.6523C24.0629 12.957 25.5342 8.44812 28.4768 5.12582C31.5144 1.70861 35.9757 0 41.8609 0V7.97351C37.1148 7.97351 34.7417 10.8687 34.7417 16.6589V19.3642H43V34.8841ZM18.9371 34.8841H2.42053C0.806843 29.6634 0 24.2528 0 18.6523C0 12.957 1.4713 8.44812 4.41391 5.12582C7.45144 1.70861 11.9128 0 17.798 0V7.97351C13.0519 7.97351 10.6788 10.8687 10.6788 16.6589V19.3642H18.9371V34.8841Z" fill="#CBD5E1"/>
</svg>
