<svg width="56" height="48" viewBox="0 0 56 48" fill="none" xmlns="http://www.w3.org/2000/svg">
<path d="M12.0402 48.0002C8.72244 48.0002 5.88631 46.6624 3.53178 43.9868C1.17726 41.2042 0 37.7259 0 33.552C0 27.5586 1.97994 21.2977 5.93982 14.7693C10.0067 8.24083 15.0904 3.31774 21.1907 0L25.8462 9.63214C23.0636 11.9867 20.7091 14.1807 18.7827 16.2141C16.9633 18.2476 15.679 21.0302 14.9298 24.562C16.7492 24.562 18.6756 25.7392 20.7091 28.0937C22.7426 30.4483 23.7593 33.1239 23.7593 36.1205C23.7593 38.9031 22.6355 41.5787 20.388 44.1473C18.1405 46.7159 15.3579 48.0002 12.0402 48.0002ZM41.7393 48.0002C38.4215 48.0002 35.5854 46.6624 33.2309 43.9868C30.8764 41.2042 29.6991 37.7259 29.6991 33.552C29.6991 27.5586 31.679 21.2977 35.6389 14.7693C39.7058 8.24083 44.7359 3.31774 50.7293 0L55.5453 9.63214C52.7627 11.9867 50.4082 14.1807 48.4818 16.2141C46.6624 18.2476 45.3781 21.0302 44.6289 24.562C46.3413 24.562 48.2677 25.7392 50.4082 28.0937C52.5487 30.4483 53.6189 33.1239 53.6189 36.1205C53.6189 38.9031 52.4416 41.5787 50.0871 44.1473C47.8396 46.7159 45.057 48.0002 41.7393 48.0002Z" fill="white"/>
</svg>
