<svg width="56" height="48" viewBox="0 0 56 48" fill="none" xmlns="http://www.w3.org/2000/svg">
<path opacity="0.25" d="M12.0401 48C8.72241 48 5.88629 46.6622 3.53178 43.9867C1.17726 41.204 0 37.7258 0 33.5519C0 27.5586 1.97993 21.2977 5.9398 14.7692C10.0067 8.24081 15.0903 3.31773 21.1907 0L25.8462 9.63211C23.0636 11.9866 20.709 14.1806 18.7826 16.2141C16.9632 18.2475 15.6789 21.0301 14.9298 24.5619C16.7492 24.5619 18.6756 25.7392 20.709 28.0937C22.7425 30.4482 23.7592 33.1238 23.7592 36.1204C23.7592 38.903 22.6355 41.5786 20.388 44.1472C18.1405 46.7158 15.3579 48 12.0401 48ZM41.7392 48C38.4214 48 35.5853 46.6622 33.2308 43.9867C30.8763 41.204 29.699 37.7258 29.699 33.5519C29.699 27.5586 31.679 21.2977 35.6388 14.7692C39.7057 8.24081 44.7358 3.31773 50.7291 0L55.5452 9.63211C52.7626 11.9866 50.4081 14.1806 48.4816 16.2141C46.6622 18.2475 45.378 21.0301 44.6288 24.5619C46.3412 24.5619 48.2676 25.7392 50.4081 28.0937C52.5485 30.4482 53.6188 33.1238 53.6188 36.1204C53.6188 38.903 52.4415 41.5786 50.087 44.1472C47.8395 46.7158 45.0569 48 41.7392 48Z" fill="black"/>
</svg>
