<svg width="200" height="200" viewBox="0 0 200 200" fill="none" xmlns="http://www.w3.org/2000/svg">
<path d="M89.7917 128.958L128.125 103.542C129.375 102.708 130 101.528 130 100C130 98.4722 129.375 97.2916 128.125 96.4583L89.7917 71.0416C88.4028 70.0694 86.9778 69.9639 85.5167 70.725C84.0556 71.4861 83.3278 72.7055 83.3334 74.3833V125.633C83.3334 127.3 84.0639 128.517 85.525 129.283C86.9861 130.05 88.4084 129.936 89.7917 128.958ZM100 183.333C88.4723 183.333 77.6389 181.144 67.5 176.767C57.3611 172.389 48.5417 166.453 41.0417 158.958C33.5417 151.464 27.6056 142.644 23.2334 132.5C18.8611 122.356 16.6722 111.522 16.6667 100C16.6667 95.5555 17.0139 91.1111 17.7084 86.6666C18.4028 82.2222 19.4445 77.8472 20.8334 73.5416C21.5278 71.3194 22.9528 69.8277 25.1084 69.0666C27.2639 68.3055 29.3111 68.4777 31.25 69.5833C33.3334 70.6944 34.8278 72.3277 35.7334 74.4833C36.6389 76.6388 36.7417 78.8944 36.0417 81.25C35.2084 84.3055 34.5472 87.3972 34.0584 90.525C33.5695 93.6527 33.3278 96.8111 33.3334 100C33.3334 118.611 39.7917 134.375 52.7084 147.292C65.625 160.208 81.3889 166.667 100 166.667C118.611 166.667 134.375 160.208 147.292 147.292C160.208 134.375 166.667 118.611 166.667 100C166.667 81.3888 160.208 65.625 147.292 52.7083C134.375 39.7916 118.611 33.3333 100 33.3333C96.6667 33.3333 93.3695 33.575 90.1084 34.0583C86.8472 34.5416 83.6167 35.2722 80.4167 36.25C78.0556 36.9444 75.8334 36.875 73.75 36.0416C71.6667 35.2083 70.1389 33.75 69.1667 31.6666C68.1945 29.5833 68.1584 27.4666 69.0584 25.3166C69.9584 23.1666 71.5223 21.7416 73.75 21.0416C77.9167 19.5138 82.2222 18.4027 86.6667 17.7083C91.1111 17.0138 95.5556 16.6666 100 16.6666C111.528 16.6666 122.361 18.8555 132.5 23.2333C142.639 27.6111 151.458 33.5472 158.958 41.0416C166.458 48.5361 172.397 57.3555 176.775 67.5C181.153 77.6444 183.339 88.4777 183.333 100C183.328 111.522 181.139 122.356 176.767 132.5C172.394 142.644 166.458 151.464 158.958 158.958C151.458 166.453 142.639 172.392 132.5 176.775C122.361 181.158 111.528 183.344 100 183.333ZM45.8334 58.3333C42.3611 58.3333 39.4111 57.1194 36.9834 54.6916C34.5556 52.2638 33.3389 49.3111 33.3334 45.8333C33.3278 42.3555 34.5445 39.4055 36.9834 36.9833C39.4222 34.5611 42.3722 33.3444 45.8334 33.3333C49.2945 33.3222 52.2472 34.5388 54.6917 36.9833C57.1361 39.4277 58.35 42.3777 58.3334 45.8333C58.3167 49.2888 57.1028 52.2416 54.6917 54.6916C52.2806 57.1416 49.3278 58.3555 45.8334 58.3333Z" fill="white"/>
</svg>
